REM DIRINDEX 1\2,1\3
REM DIRNAME folder01,folder02,folder03
TITLE ""
FILE "CD1Track16.mp3" MP3
  TRACK 01 AUDIO
    TITLE "0:"
    INDEX 01 00:00:00
  TRACK 02 AUDIO
    TITLE "2:cjc102_0616"
    INDEX 01 00:00:25
  TRACK 03 AUDIO
    TITLE "0:"
    INDEX 01 00:01:13
  TRACK 04 AUDIO
    TITLE "3:cjc102_0617"
    INDEX 01 00:01:19
  TRACK 05 AUDIO
    TITLE "0:"
    INDEX 01 00:02:51
  TRACK 06 AUDIO
    TITLE "3:cjc102_0618"
    INDEX 01 00:02:61
  TRACK 07 AUDIO
    TITLE "0:"
    INDEX 01 00:06:35
  TRACK 08 AUDIO
    TITLE "2:cjc102_0619"
    INDEX 01 00:06:39
  TRACK 09 AUDIO
    TITLE "0:"
    INDEX 01 00:07:43
  TRACK 10 AUDIO
    TITLE "3:cjc102_0620"
    INDEX 01 00:08:54
  TRACK 11 AUDIO
    TITLE "0:"
    INDEX 01 00:09:47
  TRACK 12 AUDIO
    TITLE "2:cjc102_0621"
    INDEX 01 00:09:73
  TRACK 13 AUDIO
    TITLE "0:"
    INDEX 01 00:11:09
  TRACK 14 AUDIO
    TITLE "3:cjc102_0622"
    INDEX 01 00:11:70
  TRACK 15 AUDIO
    TITLE "0:"
    INDEX 01 00:12:52
  TRACK 16 AUDIO
    TITLE "2:cjc102_0623"
    INDEX 01 00:13:00
  TRACK 17 AUDIO
    TITLE "0:"
    INDEX 01 00:14:31
  TRACK 18 AUDIO
    TITLE "3:cjc102_0624"
    INDEX 01 00:15:21
  TRACK 19 AUDIO
    TITLE "0:"
    INDEX 01 00:16:16
  TRACK 20 AUDIO
    TITLE "2:cjc102_0625"
    INDEX 01 00:16:44
  TRACK 21 AUDIO
    TITLE "0:"
    INDEX 01 00:17:55
  TRACK 22 AUDIO
    TITLE "3:cjc102_0626"
    INDEX 01 00:18:39
  TRACK 23 AUDIO
    TITLE "0:"
    INDEX 01 00:19:30
  TRACK 24 AUDIO
    TITLE "2:cjc102_0627"
    INDEX 01 00:19:58
  TRACK 25 AUDIO
    TITLE "0:"
    INDEX 01 00:20:69
  TRACK 26 AUDIO
    TITLE "3:cjc102_0628"
    INDEX 01 00:22:01
  TRACK 27 AUDIO
    TITLE "0:"
    INDEX 01 00:22:52
  TRACK 28 AUDIO
    TITLE "2:cjc102_0629"
    INDEX 01 00:23:24
  TRACK 29 AUDIO
    TITLE "0:"
    INDEX 01 00:24:55
  TRACK 30 AUDIO
    TITLE "3:cjc102_0630"
    INDEX 01 00:25:56
  TRACK 31 AUDIO
    TITLE "0:"
    INDEX 01 00:26:48
  TRACK 32 AUDIO
    TITLE "2:cjc102_0631"
    INDEX 01 00:27:20
  TRACK 33 AUDIO
    TITLE "0:"
    INDEX 01 00:28:55
  TRACK 34 AUDIO
    TITLE "3:cjc102_0632"
    INDEX 01 00:29:48
  TRACK 35 AUDIO
    TITLE "0:"
    INDEX 01 00:30:36
  TRACK 36 AUDIO
    TITLE "2:cjc102_0633"
    INDEX 01 00:31:16
  TRACK 37 AUDIO
    TITLE "0:"
    INDEX 01 00:32:25
  TRACK 38 AUDIO
    TITLE "3:cjc102_0634"
    INDEX 01 00:33:05
  TRACK 39 AUDIO
    TITLE "0:"
    INDEX 01 00:34:04
  TRACK 40 AUDIO
    TITLE "2:cjc102_0635"
    INDEX 01 00:34:67
  TRACK 41 AUDIO
    TITLE "0:"
    INDEX 01 00:36:07
  TRACK 42 AUDIO
    TITLE "3:cjc102_0636"
    INDEX 01 00:37:20
  TRACK 43 AUDIO
    TITLE "0:"
    INDEX 01 00:38:10
  TRACK 44 AUDIO
    TITLE "2:cjc102_0637"
    INDEX 01 00:38:45
  TRACK 45 AUDIO
    TITLE "0:"
    INDEX 01 00:39:58
  TRACK 46 AUDIO
    TITLE "3:cjc102_0638"
    INDEX 01 00:40:54
  TRACK 47 AUDIO
    TITLE "0:"
    INDEX 01 00:41:47
  TRACK 48 AUDIO
    TITLE "2:cjc102_0639"
    INDEX 01 00:41:71
  TRACK 49 AUDIO
    TITLE "0:"
    INDEX 01 00:43:07
  TRACK 50 AUDIO
    TITLE "3:cjc102_0640"
    INDEX 01 00:44:03
  TRACK 51 AUDIO
    TITLE "0:"
    INDEX 01 00:45:22
  TRACK 52 AUDIO
    TITLE "2:cjc102_0641"
    INDEX 01 00:45:43
  TRACK 53 AUDIO
    TITLE "0:"
    INDEX 01 00:46:49
  TRACK 54 AUDIO
    TITLE "3:cjc102_0642"
    INDEX 01 00:47:28
  TRACK 55 AUDIO
    TITLE "0:"
    INDEX 01 00:48:40
  TRACK 56 AUDIO
    TITLE "2:cjc102_0643"
    INDEX 01 00:48:67
  TRACK 57 AUDIO
    TITLE "0:"
    INDEX 01 00:49:70
  TRACK 58 AUDIO
    TITLE "3:cjc102_0644"
    INDEX 01 00:50:58
  TRACK 59 AUDIO
    TITLE "0:"
    INDEX 01 00:51:71
  TRACK 60 AUDIO
    TITLE "2:cjc102_0645"
    INDEX 01 00:52:12
  TRACK 61 AUDIO
    TITLE "0:"
    INDEX 01 00:53:13
  TRACK 62 AUDIO
    TITLE "3:cjc102_0646"
    INDEX 01 00:54:13
  TRACK 63 AUDIO
    TITLE "0:"
    INDEX 01 00:55:28
  TRACK 64 AUDIO
    TITLE "2:cjc102_0647"
    INDEX 01 00:55:55
  TRACK 65 AUDIO
    TITLE "0:"
    INDEX 01 00:57:01
  TRACK 66 AUDIO
    TITLE "3:cjc102_0648"
    INDEX 01 00:57:70
  TRACK 67 AUDIO
    TITLE "0:"
    INDEX 01 00:59:00
  TRACK 68 AUDIO
    TITLE "2:cjc102_0649"
    INDEX 01 00:59:43
  TRACK 69 AUDIO
    TITLE "0:"
    INDEX 01 01:00:55
  TRACK 70 AUDIO
    TITLE "3:cjc102_0650"
    INDEX 01 01:01:50
  TRACK 71 AUDIO
    TITLE "0:"
    INDEX 01 01:02:63
  TRACK 72 AUDIO
    TITLE "2:cjc102_0651"
    INDEX 01 01:03:22
  TRACK 73 AUDIO
    TITLE "0:"
    INDEX 01 01:04:31
